<?xml version="1.0" encoding="UTF-8" standalone="no"?>
<svg
   xmlns:dc="http://purl.org/dc/elements/1.1/"
   xmlns:cc="http://creativecommons.org/ns#"
   xmlns:rdf="http://www.w3.org/1999/02/22-rdf-syntax-ns#"
   xmlns:svg="http://www.w3.org/2000/svg"
   xmlns="http://www.w3.org/2000/svg"
   xmlns:sodipodi="http://sodipodi.sourceforge.net/DTD/sodipodi-0.dtd"
   xmlns:inkscape="http://www.inkscape.org/namespaces/inkscape"
   viewBox="0 0 64 64"
   id="svg2"
   version="1.1"
   inkscape:version="0.91 r13725"
   sodipodi:docname="favStar.svg">
  <metadata
     id="metadata10">
    <rdf:RDF>
      <cc:Work
         rdf:about="">
        <dc:format>image/svg+xml</dc:format>
        <dc:type
           rdf:resource="http://purl.org/dc/dcmitype/StillImage" />
      </cc:Work>
    </rdf:RDF>
  </metadata>
  <defs
     id="defs8" />
  <sodipodi:namedview
     pagecolor="#ffffff"
     bordercolor="#666666"
     borderopacity="1"
     objecttolerance="10"
     gridtolerance="10"
     guidetolerance="10"
     inkscape:pageopacity="0"
     inkscape:pageshadow="2"
     inkscape:window-width="1128"
     inkscape:window-height="698"
     id="namedview6"
     showgrid="false"
     inkscape:zoom="3.6875"
     inkscape:cx="36.474576"
     inkscape:cy="21.152542"
     inkscape:window-x="0"
     inkscape:window-y="0"
     inkscape:window-maximized="0"
     inkscape:current-layer="svg2" />
  <path
     style="opacity:1;fill:#fd8b61;fill-opacity:1;stroke:none;stroke-width:4;stroke-miterlimit:4;stroke-dasharray:none;stroke-dashoffset:0;stroke-opacity:1"
     inkscape:transform-center-x="6.9124635"
     inkscape:transform-center-y="1.7122216"
     d="M 62.442749,50.798724 37.686965,43.252199 18.316966,61.613066 17.844432,39.705289 2.007967,32.192708 20.880378,22.417985 27.461173,2.3971393 39.232067,16.828742 l 18.32184,-1.951291 -8.39804,15.305898 z"
     id="path4142"
     inkscape:connector-curvature="0"
     sodipodi:nodetypes="ccccccccccc" />
  <path
     d="M56.258 31.303c-.398 0-.57.793-.57.793s5.46 7.077 5.803 7.19c.342.113.797-.396.797-.396s-5.85-7.587-6.03-7.587zM30.662 55.308c-.284.17-7.565 6.284-7.792 6.51-.228.227.626.907.853.907.228 0 7.565-6.737 7.565-6.907 0-.17-.43-.626-.626-.51zm-11.547-40.82c.228 0 1.82-7.587 1.82-7.757s-.74-.34-.74-.34c-.17.284-2.388 7.19-2.445 7.757-.057.567 1.137.34 1.365.34zm31.74 14.776c-.115-.34 9.498-13.192 9.498-13.192s-.853-2.83-1.137-3.114c-.284-.283-17.576 3.17-17.576 3.17S29.695 1.467 28.5 1.07c-1.194-.395-2.275 1.02-2.787 1.416C25.2 2.88 19.23 22.414 19 22.81c-.227.395-18.47 9.127-18.826 9.17-.455.058.114 1.7.228 1.87.114.17 16.495 6.85 16.666 6.963s-.796 22.364-.74 22.703c.057.34 1.48.566 1.706.453.228-.114 18.43-18.515 18.827-18.57.4-.058 24.06 6.793 24.346 6.736.285-.056 2.446-1.585 2.787-2.49.342-.905-13.025-20.042-13.14-20.382zm8.588 19.533l-2.673-.906-1.024-4.472-1.422-.396s1.536 4.53 1.08 4.53c-.454 0-2.33-.228-2.445-.567-.115-.34-1.196-4.53-1.423-4.643-.227-.113-1.195-.113-1.195-.113s1.08 4.302.853 4.302c-.227 0-1.25-.057-1.308-.283-.057-.227-1.138-4.813-1.308-4.813-.172 0-1.48-.283-1.48 0s.796 4.473.626 4.473-11.547-3.057-11.945-3.057c-.397 0-16.722 16.76-16.722 16.475s.74-19.59.512-20.156c-.227-.566-15.47-6.568-15.585-6.794-.284-.566 17.348-7.417 17.52-7.926.17-.51 6.426-20.1 6.768-19.703.34.395 11.32 13.644 11.888 13.757.57.113 16.44-3.454 16.78-3 .342.452-9.44 13.417-9.327 13.7.114.283 12.4 17.89 12.457 18.287.056.397-.627 1.303-.627 1.303zM27.647 11.374c-.114.17-2.673 8.493-2.616 8.832.058.34 1.707.396 1.707.396s2.39-8.606 2.39-8.776c0-.17-1.34-.663-1.48-.452z"
     id="path4" />
</svg>
